<svg width="24" height="24" viewBox="0 0 24 24" fill="none" xmlns="http://www.w3.org/2000/svg">
<path d="M16.5049 2.25C19.4016 2.25 21.75 4.59838 21.75 7.49609V16.5049C21.75 19.4016 19.4016 21.75 16.5039 21.75H7.49609C4.59856 21.75 2.25 19.4018 2.25 16.5039V7.49609C2.25 4.59856 4.5982 2.25 7.49609 2.25H16.5049ZM7.49609 3.75C5.42668 3.75 3.75 5.42694 3.75 7.49609V16.5039C3.75 18.5733 5.42694 20.25 7.49609 20.25H16.5039C18.5732 20.25 20.25 18.5732 20.25 16.5049V7.49609C20.25 5.42681 18.5732 3.75 16.5049 3.75H7.49609Z" fill="#A91E22"/>
<path d="M16.949 5.96301C17.5509 5.96301 18.0402 6.45134 18.037 7.05101C18.037 7.65123 17.5502 8.13801 16.95 8.13801C16.3503 8.13801 15.862 7.65172 15.862 7.05101C15.862 6.49191 16.2843 6.03151 16.8269 5.96999L16.949 5.96301Z" fill="#A91E22"/>
<path d="M8.92442 8.92442C10.6232 7.22563 13.377 7.22563 15.0758 8.92442C16.7745 10.6232 16.7745 13.377 15.0758 15.0758C13.377 16.7745 10.6232 16.7745 8.92442 15.0758C7.22563 13.377 7.22563 10.6232 8.92442 8.92442ZM13.8785 9.85606C12.7591 8.87325 11.0534 8.91655 9.98496 9.98496C8.87197 11.098 8.87197 12.9022 9.98496 14.0152C11.098 15.1281 12.9023 15.1282 14.0152 14.0152C15.0837 12.9468 15.1262 11.2411 14.1432 10.1217L14.0152 9.98496L13.8785 9.85606Z" fill="#A91E22"/>
</svg>
