<svg width="1282" height="391" viewBox="0 0 1282 391" fill="none" xmlns="http://www.w3.org/2000/svg">
<g clip-path="url(#clip0_7_37)">
<path d="M136.51 325.23C152.25 310.64 166.06 294.25 178.57 276.75C182.32 271.51 186.03 266.24 189.71 260.95C205.91 237.7 221.63 214.11 237.98 190.96C251.82 171.36 266.05 151.87 286.15 138.01C293.75 132.77 302.28 128.87 310.19 124.47C297.32 110.84 270.76 106.18 251.02 116.18C240.16 121.69 230.55 129.67 220.43 136.61C212.6 141.98 205.26 148.26 196.97 152.75C181.36 161.21 168.89 157.45 159.62 142.32C136.22 104.1 124.34 62.71 125.85 17.71C125.9 16.23 125.9 14.75 125.95 13.27C126.08 9.50001 124.99 6.43 121.18 4.95C117.24 3.42 114.18 4.77 111.62 7.91C105.88 14.95 102.53 23.05 100.86 31.9C97.7 48.72 99.4 65.41 103.43 81.76C107.07 96.55 111.86 111.06 116.16 125.7C116.66 127.4 117.25 129.08 117.79 130.74C112.67 132.9 109.55 132.01 107.95 127.62C98.75 102.37 91.28 76.72 90.76 49.56C90.55 38.95 91.98 28.65 96.08 18.7C97.46 15.34 98.26 11.16 97.56 7.71C96.97 4.83 94.29 1.38 91.64 0.230004C89.63 -0.639996 85.47 0.930004 83.57 2.77C74.74 11.32 70.96 22.58 68.46 34.23C63.22 58.7 65.59 83.06 71.13 107.08C74.72 122.68 79.77 137.94 84.2 153.46C80.28 155.27 77.09 154.51 75.43 150.02C64.5 120.48 55.11 90.6 57.44 58.46C57.65 55.57 57.47 52.61 54.43 52.15C52.52 51.86 49.53 53.2 48.3 54.79C39.46 66.23 36.78 79.62 36.98 93.74C37.27 114.27 43.25 133.53 50.33 152.54C52.78 159.11 55.28 165.66 57.81 172.35C52.91 174.56 49.56 172.82 47.8 168.76C38.46 147.17 30.07 125.29 29.02 101.35C28.93 99.27 27.23 97.27 26.28 95.23C24.3 96.57 21.6 97.48 20.44 99.33C13.63 110.22 13.45 122.41 14.67 134.63C15.7 144.89 17.86 154.85 20.63 164.64C22.71 171.71 51.21 264.25 136.51 325.21V325.23Z" fill="#A91E22"/>
<path d="M397.44 300.25C396.34 297.6 392.96 295.08 390.05 294.22C387.16 293.36 383.4 293.98 380.43 295.07C363.19 301.41 345.59 300.82 327.86 298.32C308.44 295.58 289.59 290.51 271.15 283.91C265.7 281.96 264.61 279.41 266.83 274.07C277.75 277.46 288.64 281.05 299.65 284.22C318.52 289.65 337.65 293.46 357.45 291.89C368.96 290.98 379.69 287.72 388.99 280.59C392.41 277.98 394.43 274.73 392.57 270.35C390.95 266.53 387.85 265.2 383.77 265.68C347.25 269.96 313.81 260.44 282.12 243C273.22 238.1 264.26 233.3 255.31 228.5C253.73 227.65 252.06 226.94 250.38 226.31C238.62 221.86 235.33 223.14 228.14 233.27C210.37 258.28 192.75 283.41 174.3 307.91C167.16 317.39 158.9 326.01 150.8 334.8C166.96 344.9 184.94 353.83 204.91 360.92C215.75 364.78 226.6 368.57 237.56 372.04C252.96 376.9 269.02 379.55 285.22 376.09C290.38 374.99 295.25 372.3 300.03 369.89C301.24 369.28 302.54 366.51 302.09 365.51C301.45 364.09 299.28 362.61 297.67 362.49C273.74 360.72 251.5 352.84 229.51 344.02C224.41 341.97 223.55 339.89 225.22 333.76C230.56 335.83 235.82 337.96 241.14 339.93C262.29 347.78 283.61 354.95 306.59 354.67C319.71 354.51 332.02 351.42 342.68 343.5C344.27 342.32 345.77 339.08 345.23 337.49C344.7 335.9 341.51 334.14 339.58 334.24C310.09 335.85 282.2 328.89 254.8 319.02C252.64 318.24 250.46 317.52 248.33 316.67C243.33 314.66 242.36 312.49 243.97 307.02C256.29 310.82 268.2 315 280.37 318.16C305.83 324.77 331.62 328.32 357.96 324.21C369.11 322.47 379.62 318.93 389.27 313.05C391.35 311.79 393.68 310.36 394.89 308.4C396.4 305.97 398.28 302.31 397.43 300.26L397.44 300.25Z" fill="#A91E22"/>
<path d="M52.79 266.73C56.19 290.23 55.45 313.28 44.78 335.15C36.51 352.1 24.06 364.94 7.20001 373.45C6.36001 373.87 5.54002 374.33 4.71002 374.77C4.77002 375.24 4.82002 375.71 4.88002 376.18C15.76 375.68 26.72 375.8 37.51 374.55C68.51 370.98 95.68 358.24 120.17 339.15C125.85 334.72 131.29 330.08 136.52 325.23C51.22 264.27 22.71 171.74 20.64 164.66C23.85 175.97 27.89 187.06 32.13 198.07C40.75 220.45 49.33 242.82 52.79 266.73Z" fill="#878787"/>
<path d="M145.06 341.08C153.51 343.6 162.2 345.88 170.68 348.79C182.12 352.72 193.5 356.86 204.9 360.92C184.93 353.82 166.95 344.9 150.79 334.8C148.87 336.88 146.94 338.97 145.06 341.08Z" fill="#A91E22"/>
</g>
<path d="M453 130.52H489.58V225.28C489.58 252.12 500.98 265.42 523.54 265.42C546.1 265.42 557.27 252.12 557.27 225.28V130.52H593.85V229.09C593.85 251.41 587.2 268.52 573.9 280.63C560.6 292.74 543.74 298.68 523.55 298.68C503.36 298.68 486.26 292.74 472.96 280.87C459.66 268.76 453.01 251.66 453.01 229.09V130.52H453ZM481.5 104.63C481.5 95.37 489.34 88 498.6 88C507.86 88 515.94 95.36 515.94 104.63C515.94 113.42 508.1 121.02 498.6 121.02C489.1 121.02 481.5 113.42 481.5 104.63ZM530.9 104.63C530.9 95.37 538.74 88 548.24 88C557.74 88 565.34 95.36 565.34 104.63C565.34 113.42 557.5 121.02 548.24 121.02C538.98 121.02 530.9 113.42 530.9 104.63Z" fill="#878787"/>
<path d="M628.28 256.16C634.93 264 647.52 269.22 661.06 269.22C673.17 269.22 679.11 265.9 679.11 259.48C679.11 257.11 677.68 255.2 675.07 253.78C672.46 252.35 667.71 250.69 660.58 249.03C653.46 247.37 647.99 245.71 644.43 244.52C626.14 238.11 616.88 227.18 616.88 211.27C616.88 199.16 621.39 189.66 630.42 183.01C639.44 176.12 650.37 172.8 663.43 172.8C680.3 172.8 693.83 178.02 704.52 188.24L687.65 211.52C681.24 205.58 672.69 202.73 662.48 202.73C654.88 202.73 650.6 205.81 650.6 210.33C650.6 213.42 651.79 215.08 655.59 216.74C660.1 218.64 670.08 220.31 683.38 225.05C703.09 231.7 712.83 243.1 712.83 259.01C712.83 283.47 695.25 299.39 660.1 299.39C636.82 299.39 619.49 292.26 607.85 278.01L628.27 256.16H628.28Z" fill="#878787"/>
<path d="M734.22 208.42H718.55V176.36H734.22V130.52H768.66V176.36H795.26V208.42H768.66V251.17C768.66 262.57 773.17 267.08 783.86 267.08C785.76 267.08 788.84 266.84 792.88 266.13V297.48C788.13 298.67 782.43 299.14 775.54 299.14C747.99 299.14 734.21 284.89 734.21 256.39V208.41L734.22 208.42Z" fill="#878787"/>
<path d="M809.51 176.36H845.37V244.76C845.37 259.96 854.16 266.85 867.22 266.85C880.28 266.85 889.07 259.96 889.07 244.76V176.36H924.93V247.85C924.93 264.48 919.47 277.3 908.3 286.09C897.37 294.88 883.6 299.39 867.21 299.39C850.82 299.39 837.04 294.88 825.88 286.09C814.95 277.3 809.49 264.48 809.49 247.85V176.36H809.51ZM825.42 147.86C825.42 138.6 833.26 131.23 842.52 131.23C851.78 131.23 859.86 138.35 859.86 147.86C859.86 156.65 852.02 164.25 842.52 164.25C833.02 164.25 825.42 156.65 825.42 147.86ZM875.06 147.86C875.06 138.6 882.9 131.23 892.16 131.23C901.42 131.23 909.5 138.35 909.5 147.86C909.5 156.65 901.66 164.25 892.16 164.25C882.66 164.25 875.06 156.65 875.06 147.86Z" fill="#878787"/>
<path d="M947.5 296.06V176.36H982.89V191.32C987.88 180.87 1001.42 173.74 1017.8 173.74C1047.01 173.74 1063.64 192.27 1063.64 223.38V296.06H1028.25V227.66C1028.25 213.65 1020.41 205.1 1006.4 205.1C992.39 205.1 982.88 214.84 982.88 228.85V296.06H947.49H947.5Z" fill="#878787"/>
<path d="M1080.98 235.97C1080.98 217.21 1087.16 202.01 1099.27 190.6C1111.38 178.97 1127.06 173.26 1145.82 173.26C1164.58 173.26 1178.83 179.2 1190.23 190.84C1201.63 202.48 1207.33 216.73 1207.33 234.07C1207.33 238.11 1207.09 241.91 1206.86 245.47H1116.37C1117.08 259.72 1129.43 268.99 1148.2 268.99C1159.36 268.99 1169.1 265.19 1177.41 257.35L1198.07 277.06C1184.06 291.55 1166.72 298.91 1146.53 298.91C1126.34 298.91 1111.14 293.21 1099.03 282.05C1086.92 270.65 1080.98 255.69 1080.98 236.92V235.97ZM1171.7 222.43C1171.7 211.27 1160.06 202.48 1145.81 202.48C1130.37 202.48 1117.79 211.27 1116.84 222.43H1171.7Z" fill="#878787"/>
<path d="M1224.19 130.52H1259.58V251.65C1259.58 262.34 1263.62 267.09 1273.36 267.09C1276.68 267.09 1279.54 266.85 1281.91 266.14V297.49C1277.87 298.68 1272.17 299.15 1265.04 299.15C1237.73 299.15 1224.19 285.14 1224.19 257.11V130.52Z" fill="#878787"/>
<path d="M644.28 323.54V359.6H641.24V329.41L627.02 350.43H625.11L610.89 329.41V359.6H607.85V323.54H610.42L626.08 346.67L641.69 323.54H644.26H644.28Z" fill="#A91E22"/>
<path d="M722.01 322.97C734.58 322.97 740.76 332.4 740.76 341.57C740.76 350.74 734.58 360.17 722.01 360.17C709.44 360.17 703.26 350.74 703.26 341.57C703.26 332.4 709.44 322.97 722.01 322.97ZM722.01 325.86C711.45 325.86 706.35 333.74 706.35 341.57C706.35 349.4 711.45 357.28 722.01 357.28C732.57 357.28 737.67 349.4 737.67 341.57C737.67 333.74 732.57 325.86 722.01 325.86Z" fill="#A91E22"/>
<path d="M813.76 323.54C821.02 323.54 825.97 326.43 825.97 332.61C825.97 337.4 822.78 339.93 819.48 340.65C822.83 341.37 827.36 343.64 827.41 349.82C827.36 358.16 819.27 359.61 813.86 359.61H799.74V323.55H813.75L813.76 323.54ZM813.55 326.47H802.83V339.4H815.04C819.11 339.4 822.87 337.65 822.87 333.01C822.87 328.37 819.21 326.47 813.55 326.47ZM814.79 342.29H802.84V356.66H813.3C818.25 356.66 824.32 356.15 824.32 349.5C824.32 342.85 818.4 342.29 814.79 342.29Z" fill="#A91E22"/>
<path d="M887.99 314.88C889.28 314.88 890.36 315.7 890.36 317.2C890.36 318.7 889.28 319.57 887.99 319.57C886.7 319.57 885.57 318.75 885.57 317.2C885.57 315.65 886.7 314.88 887.99 314.88ZM889.53 323.54V359.6H886.49V323.54H889.53Z" fill="#A91E22"/>
<path d="M954.08 323.54V356.67H974.95V359.61H951.04V323.55H954.08V323.54Z" fill="#A91E22"/>
<path d="M1036.24 359.6V345.53L1022.07 323.53H1025.47L1037.78 342.75L1050.09 323.53H1053.49L1039.32 345.53V359.6H1036.23H1036.24Z" fill="#A91E22"/>
<path d="M1102.9 359.6L1118.97 323.54H1122.42L1138.44 359.6H1135.14L1130.86 349.91H1110.51L1106.18 359.6H1102.88H1102.9ZM1111.71 347.03H1129.64L1121.14 327.81C1120.98 327.4 1120.83 327.04 1120.67 326.68C1120.52 327.04 1120.36 327.4 1120.21 327.81L1111.71 347.03Z" fill="#A91E22"/>
<defs>
<clipPath id="clip0_7_37">
<rect width="828.91" height="665.32" fill="white" transform="translate(-244)"/>
</clipPath>
</defs>
</svg>
