<?xml version="1.0" encoding="UTF-8"?>
<svg id="katman_2" data-name="katman 2" xmlns="http://www.w3.org/2000/svg" xmlns:xlink="http://www.w3.org/1999/xlink" viewBox="0 0 726.46 198.12">
  <defs>
    <style>
      .cls-1 {
        fill: url(#Adsız_degrade_616);
      }

      .cls-2 {
        fill: url(#Adsız_degrade_616-10);
      }

      .cls-3 {
        fill: url(#Adsız_degrade_616-11);
      }

      .cls-4 {
        fill: url(#Adsız_degrade_616-9);
      }

      .cls-5 {
        fill: url(#Adsız_degrade_616-3);
      }

      .cls-6 {
        fill: url(#Adsız_degrade_616-6);
      }

      .cls-7 {
        fill: url(#Adsız_degrade_616-5);
      }

      .cls-8 {
        fill: url(#Adsız_degrade_616-8);
      }

      .cls-9 {
        fill: url(#Adsız_degrade_616-2);
      }

      .cls-10 {
        fill: url(#Adsız_degrade_616-4);
      }

      .cls-11 {
        fill: url(#Adsız_degrade_616-7);
      }

      .cls-12 {
        fill: #2d2d2d;
      }
    </style>
    <linearGradient id="Adsız_degrade_616" data-name="Adsız degrade 616" x1="0" y1="160.45" x2="97.6" y2="160.45" gradientUnits="userSpaceOnUse">
      <stop offset="0" stop-color="#1a2420"/>
      <stop offset="1" stop-color="#52a9a6"/>
    </linearGradient>
    <linearGradient id="Adsız_degrade_616-2" data-name="Adsız degrade 616" x1="128.82" y1="165.96" x2="230.99" y2="165.96" xlink:href="#Adsız_degrade_616"/>
    <linearGradient id="Adsız_degrade_616-3" data-name="Adsız degrade 616" x1="79.42" y1="102.7" x2="118.05" y2="102.7" xlink:href="#Adsız_degrade_616"/>
    <linearGradient id="Adsız_degrade_616-4" data-name="Adsız degrade 616" x1="37.45" y1="101.81" x2="72.44" y2="101.81" xlink:href="#Adsız_degrade_616"/>
    <linearGradient id="Adsız_degrade_616-5" data-name="Adsız degrade 616" x1="53.87" y1="73.68" x2="85.79" y2="73.68" xlink:href="#Adsız_degrade_616"/>
    <linearGradient id="Adsız_degrade_616-6" data-name="Adsız degrade 616" x1="71" y1="27.14" x2="92.13" y2="27.14" xlink:href="#Adsız_degrade_616"/>
    <linearGradient id="Adsız_degrade_616-7" data-name="Adsız degrade 616" x1="93.36" y1="34.9" x2="130.7" y2="34.9" xlink:href="#Adsız_degrade_616"/>
    <linearGradient id="Adsız_degrade_616-8" data-name="Adsız degrade 616" x1="112.03" y1="71.43" x2="140.54" y2="71.43" xlink:href="#Adsız_degrade_616"/>
    <linearGradient id="Adsız_degrade_616-9" data-name="Adsız degrade 616" x1="139.73" y1="55.07" x2="177.43" y2="55.07" xlink:href="#Adsız_degrade_616"/>
    <linearGradient id="Adsız_degrade_616-10" data-name="Adsız degrade 616" x1="125.1" y1="10.98" x2="145.96" y2="10.98" xlink:href="#Adsız_degrade_616"/>
    <linearGradient id="Adsız_degrade_616-11" data-name="Adsız degrade 616" x1="128.82" y1="113.73" x2="202.84" y2="113.73" xlink:href="#Adsız_degrade_616"/>
  </defs>
  <g id="katman_1" data-name="katman 1">
    <g>
      <g>
        <path class="cls-1" d="M93.82,198.12H0l32.69-72.14s39.09-11.02,55.79,7.82c16.7,18.83,5.33,64.32,5.33,64.32Z"/>
        <path class="cls-9" d="M137.17,198.12h93.82l-24.52-53.66s-41.22-19.9-65.74-5.33-3.55,58.99-3.55,58.99Z"/>
        <path class="cls-5" d="M111.59,141.97s24.17-35.18-20.97-78.54c0,0-15.64,32.69-9.95,54.37,0,0,20.61,4.98,30.92,24.17Z"/>
        <path class="cls-10" d="M72.44,115.97s-12.99-4.51-34.99,0l12.99-28.31s13.35,6.67,22,21.1v7.21Z"/>
        <path class="cls-7" d="M73.34,96.67s6.31-24.53,12.44-37.34c0,0-10.82-7.03-18.58-8.66l-13.35,29.94s13.37,7.4,19.48,16.06Z"/>
        <path class="cls-6" d="M87.05,50.68s10.1-31.38,1.8-47.07l-17.85,40.04s10.1,1.62,16.05,7.03Z"/>
        <path class="cls-11" d="M93.36,54.65s10.46,9.2,13.53,15.15c0,0,6.67-29.76,23.81-42.65L116.27,0h-21.28s11.9,16.41-1.62,54.65Z"/>
        <path class="cls-8" d="M132.82,34.9s21.74,43.96-7.72,73.06c0,0-1.61-15-13.07-32.57,0,0,8.38-31.39,20.79-40.49Z"/>
        <path class="cls-4" d="M139.73,29.64s7.14-6.22,9.88-6.77l27.81,58.37s-18.3-1.65-31.84,6.04c0,0,9.33-22.87-5.86-57.64Z"/>
        <path class="cls-2" d="M136.07,21.95s5.12-5.12,9.88-7.14l-6.22-14.82h-14.64s8.42,11.89,10.98,21.95Z"/>
        <path class="cls-3" d="M128.82,138.19s1.17-28.96,15.64-41.51c0,0,15.99-9.51,37.06-6.97l21.32,45.69s-46.71-23.35-74.02,2.79Z"/>
      </g>
      <g>
        <path class="cls-12" d="M323.28,84.63l37.74-72.74,37.74,72.74h-19.36l-4.4-8.9h-27.96l-4.4,8.9h-19.36ZM353.29,61.36h15.45l-7.72-15.74-7.72,15.74Z"/>
        <path class="cls-12" d="M414.4,84.63l33.14-51.33h-26.59v-16.82h56.41l-32.36,51.33h30.89v16.82h-61.49Z"/>
        <path class="cls-12" d="M501.31,16.49h18.57v36.86c0,11.24,4.3,15.45,12.02,15.45s12.02-4.2,12.02-15.45V16.49h18.58v38.81c0,9.87-2.93,17.4-8.7,22.58-5.77,5.18-13.1,7.72-21.9,7.72s-16.13-2.54-21.9-7.72c-5.77-5.18-8.7-12.71-8.7-22.58V16.49Z"/>
        <path class="cls-12" d="M592.42,84.63V16.49h30.99c6.75,0,12.51,2.25,17.3,6.84,4.79,4.6,7.14,10.07,7.14,16.62,0,8.7-4.59,16.23-11.63,19.46l17.01,25.22h-21.31l-13.88-21.21h-7.04v21.21h-18.58ZM611,48.55h10.36c4.99,0,8.02-2.93,8.02-8.02,0-4.3-2.83-7.23-6.45-7.23h-11.93v15.25Z"/>
        <path class="cls-12" d="M332.76,177.63v-68.14h19.75c5.96,0,10.85,1.96,14.66,5.87,3.81,3.91,5.77,8.7,5.77,14.27s-1.96,10.66-5.77,14.47c-3.81,3.81-8.7,5.77-14.66,5.77h-14.66v27.76h-5.08ZM337.85,145.17h14.47c4.69,0,8.41-1.47,11.24-4.5,2.83-3.03,4.3-6.75,4.3-11.05s-1.47-7.92-4.3-10.95-6.55-4.5-11.24-4.5h-14.47v30.99Z"/>
        <path class="cls-12" d="M406.77,177.63v-68.14h37.15v4.69h-32.07v25.03h30.21v4.79h-30.21v28.94h32.75v4.69h-37.83Z"/>
        <path class="cls-12" d="M499.84,148.89v28.74h-5.08v-28.74l-23.76-39.4h5.67l20.63,34.31,20.63-34.31h5.67l-23.76,39.4Z"/>
        <path class="cls-12" d="M542.86,177.63l46.34-63.45h-38.62v-4.69h47.81l-46.34,63.45h44.87v4.69h-54.06Z"/>
        <path class="cls-12" d="M651.96,107.63l29.43,70h-5.18l-7.82-18.58h-32.85l-7.82,18.58h-5.18l29.43-70ZM637.59,154.36h28.74l-14.37-34.61-14.37,34.61Z"/>
        <path class="cls-12" d="M706.22,173.03c1.56.59,3.42.88,5.57.88,7.33,0,9.58-4.69,9.58-14.08v-50.35h5.08v50.15c0,5.96-.59,9.78-2.54,13.59-1.86,3.62-5.77,5.57-11.93,5.57-2.35,0-4.3-.29-5.77-.78v-4.99Z"/>
      </g>
      <rect class="cls-12" x="276.39" y="0" width="3" height="198.12"/>
    </g>
  </g>
</svg>