<svg width="24" height="24" viewBox="0 0 24 24" fill="none" xmlns="http://www.w3.org/2000/svg">
<path d="M12.0371 2.45599C14.5676 2.45711 16.9472 3.44408 18.7344 5.23236C20.521 7.02116 21.506 9.40099 21.5049 11.9277C21.5025 17.1467 17.2559 21.3915 12.0371 21.3915C10.5535 21.3915 9.09528 21.0442 7.77441 20.3788L3.43457 21.5185C2.90889 21.6563 2.42754 21.2096 2.5 20.6923L2.5205 20.5947L3.67675 16.372L3.65918 16.3408C2.99645 15.0844 2.62581 13.6942 2.57422 12.2753L2.56836 11.9199C2.56944 6.70057 6.8161 2.45599 12.0371 2.45599ZM11.7891 3.9599C7.51047 4.09132 4.06933 7.61212 4.06836 11.9208C4.06653 13.3183 4.43285 14.6917 5.13086 15.9023C5.23086 16.0757 5.25699 16.2824 5.2041 16.4755L4.30957 19.7372L7.67578 18.8554C7.82354 18.8167 7.97907 18.8246 8.12109 18.8759L8.22461 18.9218C9.39455 19.5585 10.7034 19.8915 12.0371 19.8915C16.4278 19.8915 20.003 16.3177 20.0049 11.9267C20.0058 9.79783 19.1793 7.79923 17.6738 6.29193C16.168 4.78519 14.1692 3.95697 12.0361 3.95502L11.7891 3.9599Z" fill="#A91E22"/>
<path d="M12.9728 12.6245C13.6037 11.9987 14.5979 11.9175 15.3249 12.4281L16.4637 13.2239C17.3615 13.8471 17.5076 15.098 16.815 15.913L16.7104 16.0263L16.3514 16.3853C16.0585 16.6782 15.5836 16.6782 15.2907 16.3853C15.0244 16.1191 15.0002 15.7024 15.2181 15.4088L15.2907 15.3247L15.6503 14.9651C15.7994 14.8163 15.7785 14.5742 15.6071 14.4552L14.463 13.6558C14.3511 13.5771 14.2035 13.5746 14.0916 13.6411L14.0294 13.6893L13.6234 14.0923C13.3294 14.3841 12.8545 14.3823 12.5627 14.0884C12.2975 13.8211 12.2748 13.4044 12.4937 13.1116L12.5667 13.0277L12.9728 12.6245Z" fill="#A91E22"/>
<path d="M7.97369 7.28967C8.78196 6.4814 10.1228 6.59697 10.7761 7.53627L11.5718 8.67494C12.0509 9.35715 12.0099 10.2739 11.4864 10.9051L11.3753 11.0274L10.9723 11.4334C10.6805 11.7273 10.2056 11.7291 9.91166 11.4373C9.64441 11.172 9.61866 10.7554 9.83542 10.461L9.90773 10.3766L10.3113 9.9701C10.4239 9.85689 10.4389 9.67179 10.3448 9.53787L9.5443 8.39223C9.44092 8.2436 9.24202 8.20899 9.09417 8.30241L9.03435 8.35033L8.67535 8.70933C8.38246 9.00222 7.90758 9.00222 7.61469 8.70933C7.34842 8.44306 7.32422 8.0264 7.54207 7.73279L7.61469 7.64867L7.97369 7.28967Z" fill="#A91E22"/>
<path d="M9.35585 13.5805C9.64882 13.2877 10.1237 13.2878 10.4165 13.5808C12.4093 15.5746 14.3471 16.2638 15.292 15.3234C15.5856 15.0312 16.0604 15.0323 16.3526 15.3259C16.6448 15.6195 16.6437 16.0944 16.3501 16.3866C14.6045 18.124 11.8616 17.1484 9.35558 14.6412C9.06276 14.3482 9.06288 13.8733 9.35585 13.5805Z" fill="#A91E22"/>
<path d="M7.61344 7.64991C7.90564 7.35633 8.38051 7.3552 8.6741 7.6474C8.94099 7.91304 8.96619 8.32964 8.74903 8.62377L8.67661 8.70806C7.73638 9.65275 8.42494 11.5892 10.4185 13.5838C10.7113 13.8768 10.7112 14.3516 10.4182 14.6445C10.1253 14.9373 9.65038 14.9371 9.35756 14.6442C6.85094 12.1363 5.87631 9.39529 7.61344 7.64991Z" fill="#A91E22"/>
<path d="M10.0384 10.2716C10.3882 10.0498 10.8516 10.1535 11.0734 10.5033C11.2999 10.8604 11.5829 11.2234 11.9085 11.5757L12.1604 11.8377C12.5948 12.2721 13.0503 12.6435 13.4967 12.9266C13.8465 13.1485 13.9502 13.6119 13.7284 13.9617C13.5066 14.3115 13.0432 14.4152 12.6934 14.1934C12.2405 13.9062 11.7895 13.5521 11.3581 13.1484L11.1017 12.9003C10.5922 12.3909 10.1513 11.8501 9.80667 11.3067C9.58483 10.9569 9.68856 10.4935 10.0384 10.2716Z" fill="#A91E22"/>
</svg>
