<svg width="20" height="20" viewBox="0 0 20 20" fill="none" xmlns="http://www.w3.org/2000/svg">
<path d="M14.5049 0.25C17.4016 0.25 19.75 2.59838 19.75 5.49609V14.5049C19.75 17.4016 17.4016 19.75 14.5039 19.75H5.49609C2.59856 19.75 0.25 17.4018 0.25 14.5039V5.49609C0.25 2.59856 2.5982 0.25 5.49609 0.25H14.5049ZM5.49609 1.75C3.42668 1.75 1.75 3.42694 1.75 5.49609V14.5039C1.75 16.5733 3.42694 18.25 5.49609 18.25H14.5039C16.5732 18.25 18.25 16.5732 18.25 14.5049V5.49609C18.25 3.42681 16.5732 1.75 14.5049 1.75H5.49609Z" fill="#363636"/>
<path d="M14.949 3.963C15.5509 3.963 16.0402 4.45133 16.037 5.051C16.037 5.65121 15.5502 6.138 14.95 6.138C14.3503 6.138 13.862 5.65171 13.862 5.051C13.862 4.49189 14.2843 4.03149 14.8269 3.96998L14.949 3.963Z" fill="#363636"/>
<path d="M6.92442 6.92442C8.6232 5.22563 11.377 5.22563 13.0758 6.92442C14.7745 8.62321 14.7745 11.377 13.0758 13.0758C11.377 14.7745 8.62321 14.7745 6.92442 13.0758C5.22563 11.377 5.22563 8.6232 6.92442 6.92442ZM11.8785 7.85606C10.7591 6.87325 9.05337 6.91655 7.98496 7.98496C6.87197 9.09796 6.87197 10.9022 7.98496 12.0152C9.09797 13.1281 10.9023 13.1282 12.0152 12.0152C13.0837 10.9468 13.1262 9.24114 12.1432 8.12168L12.0152 7.98496L11.8785 7.85606Z" fill="#363636"/>
</svg>
